<svg xmlns="http://www.w3.org/2000/svg" width="244" height="244"><g data-name="グループ 3" fill="rgba(255,255,255,0)"><g data-name="楕円形 1" stroke="#d5d5d5" stroke-width="1.5"><circle cx="122" cy="122" r="122" stroke="none"/><circle cx="122" cy="122" r="121.25" fill="none"/></g><g data-name="パス 1"><path d="M122.5 237.25c-7.787 0-15.57-.784-23.129-2.331a114.153 114.153 0 01-21.536-6.685 114.753 114.753 0 01-19.49-10.58 115.587 115.587 0 01-16.985-14.013 115.587 115.587 0 01-14.014-16.985 114.754 114.754 0 01-10.58-19.491 114.153 114.153 0 01-6.685-21.536A115.612 115.612 0 017.75 122.5c0-7.787.784-15.57 2.331-23.129a114.153 114.153 0 016.686-21.536 114.753 114.753 0 0110.579-19.49A115.59 115.59 0 0141.36 41.36a115.59 115.59 0 0116.984-14.014 114.753 114.753 0 0119.491-10.58 114.153 114.153 0 0121.536-6.685A115.612 115.612 0 01122.5 7.75c7.787 0 15.57.784 23.129 2.331a114.153 114.153 0 0121.536 6.686 114.754 114.754 0 0119.49 10.579 115.587 115.587 0 0116.986 14.014 115.587 115.587 0 0114.013 16.984 114.753 114.753 0 0110.58 19.491 114.153 114.153 0 016.685 21.536 115.613 115.613 0 012.331 23.129c0 7.787-.784 15.57-2.331 23.129a114.153 114.153 0 01-6.685 21.536 114.755 114.755 0 01-10.58 19.49 115.586 115.586 0 01-14.013 16.986 115.586 115.586 0 01-16.985 14.013 114.755 114.755 0 01-19.491 10.58 114.153 114.153 0 01-21.536 6.685 115.612 115.612 0 01-23.129 2.331z"/><path d="M122.5 10.5c-61.757 0-112 50.243-112 112s50.243 112 112 112 112-50.243 112-112-50.243-112-112-112m0-5.5C187.393 5 240 57.607 240 122.5S187.393 240 122.5 240 5 187.393 5 122.5 57.607 5 122.5 5z" fill="#d5d5d5"/></g></g></svg>